<svg xmlns="http://www.w3.org/2000/svg" viewBox="0 0 135 40"><path d="M5 0h125c2.8 0 5 2.2 5 5v30c0 2.8-2.2 5-5 5H5c-2.8 0-5-2.2-5-5V5c0-2.8 2.2-5 5-5z"/><path fill="#A6A6A6" d="M130 .8c2.3 0 4.2 1.9 4.2 4.2v30c0 2.3-1.9 4.2-4.2 4.2H5C2.7 39.2.8 37.3.8 35V5C.8 2.7 2.7.8 5 .8h125m0-.8H5C2.2 0 0 2.2 0 5v30c0 2.8 2.2 5 5 5h125c2.8 0 5-2.2 5-5V5c0-2.8-2.2-5-5-5z"/><path fill="#FFF" stroke="#FFF" stroke-width="0.2" stroke-miterlimit="10" d="M47.4 10.2c0 .7-.2 1.5-.8 2-.6.6-1.4.9-2.2.9-1.7 0-3.1-1.4-3.1-3.2 0-.8.3-1.6.9-2.2.6-.6 1.4-.9 2.2-.9.4 0 .8.1 1.2.2.4.1.7.4.9.7l-.5.5c-.4-.5-1-.7-1.6-.7-1.3 0-2.3 1-2.3 2.3v.1c0 1.3 1 2.4 2.3 2.4.6 0 1.2-.2 1.7-.7.3-.3.5-.8.5-1.2h-2.2v-.6h2.9c.1.1.1.3.1.4zM52 7.7h-2.7v1.9h2.5v.7h-2.5v1.9H52v.8h-3.5V7H52v.7zm3.3 5.3h-.8V7.7h-1.7V7H57v.7h-1.7V13zm4.6 0V7h.8v6h-.8zm4.2 0h-.8V7.7h-1.7V7h4.1v.7H64l.1 5.3zm9.5-.8c-1.2 1.2-3.2 1.2-4.4 0C68 11 68 9 69.2 7.8c1.2-1.2 3.2-1.2 4.4 0 1.2 1.2 1.2 3.2 0 4.4zm-3.8-.5c.9.9 2.4.9 3.3 0 .9-1 .9-2.5 0-3.4-.9-.9-2.4-.9-3.3 0-.9 1-.9 2.4 0 3.4zm5.8 1.3V7h.9l2.9 4.7V7h.8v6h-.8l-3.1-4.9V13h-.7z"/><path fill="#FFF" d="M68.1 21.8c-2.3 0-4.2 1.9-4.2 4.3 0 2.3 1.9 4.2 4.3 4.2 2.3 0 4.2-1.9 4.2-4.2 0-2.3-1.8-4.2-4.1-4.3-.1-.1-.1-.1-.2 0zm0 6.8c-1.4.1-2.7-1-2.8-2.4-.1-1.4 1-2.7 2.4-2.8 1.4-.1 2.7 1 2.8 2.4v.2c.1 1.4-.9 2.5-2.4 2.6.1 0 .1 0 0 0zm-9.3-6.8c-2.3 0-4.2 1.9-4.2 4.3 0 2.3 1.9 4.2 4.3 4.2 2.3 0 4.2-1.9 4.2-4.2 0-2.3-1.8-4.2-4.1-4.3-.1-.1-.1-.1-.2 0zm0 6.8c-1.4.1-2.7-1-2.8-2.4-.1-1.4 1-2.7 2.4-2.8 1.4-.1 2.7 1 2.8 2.4v.2c.1 1.4-1 2.5-2.4 2.6.1 0 0 0 0 0zm-11.1-5.5v1.8H52c-.1.8-.4 1.6-1 2.3-.9.9-2.1 1.4-3.3 1.3-2.7 0-4.8-2.1-4.8-4.8s2.1-4.8 4.8-4.8c1.2 0 2.4.4 3.3 1.3l1.3-1.3c-1.2-1.2-2.8-1.9-4.5-1.9-3.6-.1-6.7 2.7-6.9 6.3-.1 3.6 2.7 6.7 6.3 6.9h.5c1.7.1 3.4-.6 4.6-1.8 1-1.2 1.6-2.7 1.6-4.2 0-.4 0-.8-.1-1.1h-6.1zm45.4 1.4c-.5-1.6-2-2.6-3.6-2.7-2.2 0-4 1.8-4 4v.3c0 2.3 1.8 4.2 4.1 4.2h.2c1.4 0 2.8-.7 3.5-1.9l-1.4-1c-.4.7-1.2 1.2-2.1 1.2-.9 0-1.7-.5-2.1-1.3l5.7-2.3-.3-.5zm-5.9 1.4c-.1-1.3.9-2.4 2.2-2.5.7 0 1.3.3 1.6.9l-3.8 1.6zM82.6 30h1.9V17.5h-1.9V30zm-3-7.3c-.6-.6-1.5-1-2.3-1-2.3.1-4.2 2.1-4 4.5.1 2.2 1.9 3.9 4 4 .9 0 1.7-.4 2.2-1h.1v.6c0 1.6-.9 2.5-2.3 2.5-1 0-1.8-.6-2.1-1.5l-1.6.7c.6 1.5 2.1 2.5 3.8 2.5 2.2 0 4-1.3 4-4.4V22h-1.7v.7zm-2.2 5.9c-1.4-.1-2.5-1.4-2.4-2.8.1-1.3 1.1-2.2 2.4-2.4 1.3.1 2.3 1.2 2.3 2.5v.1c.1 1.3-.9 2.5-2.2 2.6h-.1zm24.4-11.1h-4.5V30h1.9v-4.7h2.6c2.1.2 4-1.5 4.2-3.6.2-2.1-1.5-4-3.6-4.2h-.6zm0 6h-2.6v-4.3h2.7c1.2 0 2.1 1 2.1 2.1s-1 2.2-2.2 2.2zm11.5-1.8c-1.4-.1-2.7.7-3.3 1.9l1.7.7c.3-.6 1-1 1.7-.9 1-.1 1.9.6 2 1.6v.1c-.6-.3-1.3-.5-1.9-.5-1.8 0-3.6 1-3.6 2.8.1 1.6 1.4 2.8 3 2.8h.1c1 .1 1.9-.4 2.4-1.2h.1v1h1.8v-4.8c-.1-2.2-1.8-3.5-4-3.5zm-.2 6.8c-.6 0-1.5-.3-1.5-1.1 0-1 1.1-1.3 2-1.3.6 0 1.2.1 1.7.4-.1 1.2-1 2.1-2.2 2zm10.6-6.5l-2.1 5.4h-.1l-2.2-5.4h-2l3.3 7.6-1.9 4.2h1.9l5.1-11.8h-2zm-16.8 8h1.9V17.5h-1.9V30z"/><linearGradient id="a" gradientUnits="userSpaceOnUse" x1="21.8025" y1="806.7125" x2="5.0225" y2="823.4925" gradientTransform="translate(0 -798)"><stop offset="0" stop-color="#00A0FF"/><stop offset=".01" stop-color="#00A1FF"/><stop offset=".26" stop-color="#00BEFF"/><stop offset=".51" stop-color="#00D2FF"/><stop offset=".76" stop-color="#00DFFF"/><stop offset="1" stop-color="#00E3FF"/></linearGradient><path fill="url(#a)" d="M10.4 7.5c-.3.4-.5.9-.4 1.4V31c0 .5.1 1 .5 1.4l.1.1L23 20.1v-.3L10.4 7.5z"/><linearGradient id="b" gradientUnits="userSpaceOnUse" x1="33.83" y1="818" x2="9.64" y2="818" gradientTransform="translate(0 -798)"><stop offset="0" stop-color="#FFE000"/><stop offset=".41" stop-color="#FFBD00"/><stop offset=".78" stop-color="#FFA500"/><stop offset="1" stop-color="#FF9C00"/></linearGradient><path fill="url(#b)" d="M27 24.3l-4.1-4.1v-.3l4.1-4.1h.1l4.9 2.8c1.4.8 1.4 2.1 0 2.9l-4.9 2.8H27z"/><linearGradient id="c" gradientUnits="userSpaceOnUse" x1="24.8275" y1="820.2975" x2="2.0675" y2="843.0475" gradientTransform="translate(0 -798)"><stop offset="0" stop-color="#FF3A44"/><stop offset="1" stop-color="#C31162"/></linearGradient><path fill="url(#c)" d="M27.1 24.2L22.9 20 10.4 32.5c.6.5 1.5.5 2.1.1l14.6-8.4"/><linearGradient id="d" gradientUnits="userSpaceOnUse" x1="7.2975" y1="798.1825" x2="17.4575" y2="808.3425" gradientTransform="translate(0 -798)"><stop offset="0" stop-color="#32A071"/><stop offset=".07" stop-color="#2DA771"/><stop offset=".48" stop-color="#15CF74"/><stop offset=".8" stop-color="#06E775"/><stop offset="1" stop-color="#00F076"/></linearGradient><path fill="url(#d)" d="M27.1 15.8L12.5 7.5c-.6-.5-1.5-.5-2.1 0L22.9 20l4.2-4.2z"/></svg>
